<svg width="100" height="100" viewBox="0 0 100 100" fill="none" xmlns="http://www.w3.org/2000/svg">
<rect width="100" height="100" rx="10" fill="#00619A"/>
<path d="M35 56.37V31.8815C35 31.1287 35.1807 30.5641 35.5421 30.1877C35.9486 29.7643 36.5132 29.435 37.236 29.1997C38.546 28.7763 40.1269 28.4705 41.979 28.2823C43.8762 28.0941 45.7056 28 47.4673 28C53.204 28 57.3824 29.2703 60.0023 31.8109C62.6674 34.3044 64 37.6919 64 41.9733C64 44.8903 63.3902 47.4309 62.1706 49.5951C60.9961 51.7593 59.1893 53.4295 56.75 54.6057C54.3107 55.7819 51.1939 56.37 47.3995 56.37H35ZM37.9813 72.037C36.9875 72.037 36.2422 71.8253 35.7453 71.4019C35.2484 70.9785 35 70.3198 35 69.4259V53.6177H40.5561V71.543C40.285 71.6371 39.9237 71.7312 39.472 71.8253C39.0202 71.9665 38.5234 72.037 37.9813 72.037ZM40.4883 51.5711H47.0607C50.6745 51.5711 53.4751 50.7948 55.4626 49.2422C57.4502 47.6426 58.4439 45.2431 58.4439 42.0439C58.4439 38.8446 57.4727 36.5157 55.5304 35.0572C53.6332 33.5517 50.9003 32.7989 47.3318 32.7989C46.1122 32.7989 44.8925 32.8695 43.6729 33.0106C42.4984 33.1047 41.4369 33.2459 40.4883 33.4341V51.5711Z" fill="white"/>
<path d="M40.3704 33.3704H44.6667V72.037H40.3704V33.3704Z" fill="#00619A"/>
</svg>
