<svg width="202" height="43" viewBox="0 0 202 43" fill="none" xmlns="http://www.w3.org/2000/svg">
<path d="M0 27.532V4.63C0 3.926 0.176 3.398 0.528 3.046C0.924 2.65 1.474 2.342 2.178 2.122C3.454 1.726 4.994 1.44 6.798 1.264C8.646 1.088 10.428 1 12.144 1C17.732 1 21.802 2.188 24.354 4.564C26.95 6.896 28.248 10.064 28.248 14.068C28.248 16.796 27.654 19.172 26.466 21.196C25.322 23.22 23.562 24.782 21.186 25.882C18.81 26.982 15.774 27.532 12.078 27.532H0ZM2.904 42.184C1.936 42.184 1.21 41.986 0.726 41.59C0.242 41.194 0 40.578 0 39.742V24.958H5.412V41.722C5.148 41.81 4.796 41.898 4.356 41.986C3.916 42.118 3.432 42.184 2.904 42.184ZM5.346 23.044H11.748C15.268 23.044 17.996 22.318 19.932 20.866C21.868 19.37 22.836 17.126 22.836 14.134C22.836 11.142 21.89 8.964 19.998 7.6C18.15 6.192 15.488 5.488 12.012 5.488C10.824 5.488 9.636 5.554 8.448 5.686C7.304 5.774 6.27 5.906 5.346 6.082V23.044Z" fill="#00619A"/>
<path d="M37.6953 17.8V27.912H32.5753V18.184C32.5753 17.2027 32.7459 16.4347 33.0873 15.88C33.4713 15.2827 34.0899 14.7067 34.9433 14.152C36.0526 13.4267 37.5673 12.808 39.4873 12.296C41.4073 11.7413 43.5406 11.464 45.8873 11.464C49.3006 11.464 51.0073 12.3173 51.0073 14.024C51.0073 14.4507 50.9433 14.856 50.8153 15.24C50.6873 15.5813 50.5166 15.88 50.3033 16.136C49.8766 16.0507 49.3219 15.9653 48.6393 15.88C47.9566 15.7947 47.2739 15.752 46.5913 15.752C44.6286 15.752 42.9006 15.9653 41.4073 16.392C39.9139 16.776 38.6766 17.2453 37.6953 17.8ZM32.5753 24.968L37.6953 25.736V41.736C37.4819 41.8213 37.1619 41.9067 36.7353 41.992C36.3086 42.12 35.8393 42.184 35.3273 42.184C34.4313 42.184 33.7486 42.0133 33.2793 41.672C32.8099 41.288 32.5753 40.6907 32.5753 39.88V24.968Z" fill="#00619A"/>
<path d="M56.154 24.968H61.274V41.736C61.0607 41.8213 60.7407 41.9067 60.314 41.992C59.8873 42.12 59.418 42.184 58.906 42.184C58.01 42.184 57.3273 42.0133 56.858 41.672C56.3887 41.288 56.154 40.6907 56.154 39.88V24.968ZM61.274 27.464H56.154V12.424C56.3673 12.3387 56.6873 12.2533 57.114 12.168C57.5833 12.04 58.074 11.976 58.586 11.976C59.482 11.976 60.1433 12.168 60.57 12.552C61.0393 12.8933 61.274 13.4907 61.274 14.344V27.464Z" fill="#00619A"/>
<path d="M89.772 21.384V28.744H84.652V21.768C84.652 19.6773 84.0333 18.1413 82.796 17.16C81.6013 16.1787 80.0013 15.688 77.996 15.688C76.6733 15.688 75.3933 15.9013 74.156 16.328C72.9187 16.7547 71.8733 17.2453 71.02 17.8V28.744H65.9V18.056C65.9 17.2027 66.0707 16.4773 66.412 15.88C66.796 15.2827 67.436 14.7067 68.332 14.152C69.484 13.4267 70.9347 12.808 72.684 12.296C74.476 11.7413 76.268 11.464 78.06 11.464C80.236 11.464 82.156 11.8053 83.82 12.488C85.484 13.128 86.7213 14.024 87.532 15.176C87.788 15.432 88.0013 15.6667 88.172 15.88C88.3427 16.0933 88.5133 16.3707 88.684 16.712C88.9827 17.224 89.2387 17.8853 89.452 18.696C89.6653 19.5067 89.772 20.4027 89.772 21.384ZM108.524 21.512V28.744H103.404V21.768C103.404 19.6773 102.807 18.1413 101.612 17.16C100.417 16.1787 98.8173 15.688 96.812 15.688C95.3187 15.688 93.868 16.008 92.46 16.648C91.0947 17.2453 89.8573 18.12 88.748 19.272L86.7 15.56C87.8093 14.4507 89.26 13.4907 91.052 12.68C92.844 11.8693 94.892 11.464 97.196 11.464C99.5 11.464 101.484 11.8267 103.148 12.552C104.855 13.2773 106.177 14.3867 107.116 15.88C108.055 17.3733 108.524 19.2507 108.524 21.512ZM65.9 25.352H71.02V41.736C70.8067 41.8213 70.4867 41.9067 70.06 41.992C69.6333 42.12 69.164 42.184 68.652 42.184C67.756 42.184 67.0733 42.0133 66.604 41.672C66.1347 41.288 65.9 40.6907 65.9 39.88V25.352ZM84.652 25.352H89.772V41.736C89.5587 41.8213 89.2173 41.9067 88.748 41.992C88.3213 42.12 87.8733 42.184 87.404 42.184C86.4653 42.184 85.7613 42.0133 85.292 41.672C84.8653 41.288 84.652 40.6907 84.652 39.88V25.352ZM103.404 25.352H108.524V41.736C108.311 41.8213 107.969 41.9067 107.5 41.992C107.073 42.12 106.625 42.184 106.156 42.184C105.217 42.184 104.513 42.0133 104.044 41.672C103.617 41.288 103.404 40.6907 103.404 39.88V25.352Z" fill="#00619A"/>
<path d="M117.412 26.824L116.964 23.176H136.036C135.865 20.8293 135.055 18.9093 133.604 17.416C132.153 15.88 130.148 15.112 127.588 15.112C124.943 15.112 122.745 16.072 120.996 17.992C119.289 19.8693 118.696 22.0027 118.696 25.544L118.774 28.5C119.073 31.9133 119.844 33.544 121.764 35.336C123.727 37.0853 126.393 37.96 129.764 37.96C131.556 37.96 133.177 37.6613 134.628 37.064C136.079 36.4667 137.231 35.8267 138.084 35.144C138.553 35.4427 138.916 35.8053 139.172 36.232C139.471 36.616 139.62 37.064 139.62 37.576C139.62 38.3867 139.151 39.1547 138.212 39.88C137.316 40.5627 136.1 41.1173 134.564 41.544C133.071 41.9707 131.385 42.184 129.508 42.184C126.223 42.184 123.364 41.5867 120.932 40.392C118.543 39.1973 116.687 37.4267 115.364 35.08C114.084 32.6907 113.444 29.7893 113.444 26.376C113.444 23.944 113.785 21.7893 114.468 19.912C115.193 17.992 116.175 16.3707 117.412 15.048C118.692 13.7253 120.207 12.7227 121.956 12.04C123.705 11.3147 125.604 10.952 127.652 10.952C130.255 10.952 132.537 11.5067 134.5 12.616C136.505 13.7253 138.063 15.2827 139.172 17.288C140.324 19.2507 140.9 21.512 140.9 24.072C140.9 25.0107 140.687 25.6933 140.26 26.12C139.833 26.504 139.236 26.7387 138.468 26.824H117.412Z" fill="#00619A"/>
<path d="M154.454 26.12L149.27 26.056V5.768C149.27 4.91467 149.526 4.232 150.038 3.72C150.55 3.208 151.233 2.952 152.086 2.952C152.555 2.952 153.025 3.016 153.494 3.144C153.963 3.272 154.283 3.37867 154.454 3.464V26.12ZM152.086 25.096V20.68H171.094C171.222 20.8933 171.35 21.192 171.478 21.576C171.606 21.9173 171.67 22.3013 171.67 22.728C171.67 23.4107 171.499 23.9867 171.158 24.456C170.817 24.8827 170.326 25.096 169.686 25.096H152.086ZM152.086 7.368V2.952H173.334C173.462 3.12267 173.59 3.4 173.718 3.784C173.846 4.168 173.91 4.57333 173.91 5C173.91 5.68267 173.739 6.25867 173.398 6.728C173.057 7.15467 172.566 7.368 171.926 7.368H152.086ZM149.27 19.08H154.518V41.8C154.305 41.8427 153.963 41.9067 153.494 41.992C153.067 42.12 152.619 42.184 152.15 42.184C151.211 42.184 150.486 41.992 149.974 41.608C149.505 41.224 149.27 40.648 149.27 39.88V19.08Z" fill="#00619A"/>
<path d="M176.272 24.968H181.392V41.736C181.179 41.8213 180.859 41.9067 180.432 41.992C180.006 42.12 179.536 42.184 179.024 42.184C178.128 42.184 177.446 42.0133 176.976 41.672C176.507 41.288 176.272 40.6907 176.272 39.88V24.968ZM181.392 27.464H176.272V12.424C176.486 12.3387 176.806 12.2533 177.232 12.168C177.702 12.04 178.192 11.976 178.704 11.976C179.6 11.976 180.262 12.168 180.688 12.552C181.158 12.8933 181.392 13.4907 181.392 14.344V27.464Z" fill="#00619A"/>
<path d="M185.182 24.456H190.302V33.288C190.302 34.9947 190.792 36.2107 191.774 36.936C192.755 37.6187 194.099 37.96 195.806 37.96C196.531 37.96 197.342 37.832 198.238 37.576C199.134 37.32 199.88 37.0213 200.478 36.68C200.734 36.936 200.968 37.256 201.182 37.64C201.395 38.024 201.502 38.472 201.502 38.984C201.502 39.9227 200.947 40.6907 199.838 41.288C198.728 41.8853 197.192 42.184 195.23 42.184C192.243 42.184 189.811 41.5227 187.934 40.2C186.099 38.8773 185.182 36.68 185.182 33.608V24.456ZM187.806 16.648V12.424H200.798C200.926 12.5947 201.054 12.872 201.182 13.256C201.31 13.64 201.374 14.0453 201.374 14.472C201.374 15.1547 201.203 15.688 200.862 16.072C200.52 16.456 200.051 16.648 199.454 16.648H187.806ZM190.302 26.376H185.182V3.208C185.395 3.12267 185.715 3.03733 186.142 2.952C186.611 2.824 187.102 2.76 187.614 2.76C188.51 2.76 189.171 2.952 189.598 3.336C190.067 3.67733 190.302 4.25333 190.302 5.064V26.376Z" fill="#00619A"/>
<path d="M154.454 26.12L149.27 26.056V5.768C149.27 4.91467 149.526 4.232 150.038 3.72C150.55 3.208 151.233 2.952 152.086 2.952C152.555 2.952 153.025 3.016 153.494 3.144C153.963 3.272 154.283 3.37867 154.454 3.464V26.12ZM152.086 25.096V20.68H171.094C171.222 20.8933 171.35 21.192 171.478 21.576C171.606 21.9173 171.67 22.3013 171.67 22.728C171.67 23.4107 171.499 23.9867 171.158 24.456C170.817 24.8827 170.326 25.096 169.686 25.096H152.086ZM152.086 7.368V2.952H173.334C173.462 3.12267 173.59 3.4 173.718 3.784C173.846 4.168 173.91 4.57333 173.91 5C173.91 5.68267 173.739 6.25867 173.398 6.728C173.057 7.15467 172.566 7.368 171.926 7.368H152.086ZM149.27 19.08H154.518V41.8C154.305 41.8427 153.963 41.9067 153.494 41.992C153.067 42.12 152.619 42.184 152.15 42.184C151.211 42.184 150.486 41.992 149.974 41.608C149.505 41.224 149.27 40.648 149.27 39.88V19.08Z" fill="#00619A"/>
<path d="M0 27.8732V4.2291C0 3.50229 0.174455 2.95718 0.523365 2.59378C0.915888 2.18494 1.46106 1.86696 2.15888 1.63983C3.42368 1.231 4.95016 0.935734 6.73832 0.754031C8.57009 0.572328 10.3364 0.481476 12.0374 0.481476C17.5763 0.481476 21.6106 1.70797 24.1402 4.16096C26.7134 6.56853 28 9.83918 28 13.9729C28 16.7893 27.4112 19.2423 26.2336 21.3319C25.0997 23.4215 23.3551 25.0341 21 26.1697C18.6449 27.3054 15.6355 27.8732 11.972 27.8732H0ZM2.8785 43C1.919 43 1.19938 42.7956 0.719626 42.3867C0.239875 41.9779 0 41.342 0 40.4789V25.2158H5.36449V42.523C5.1028 42.6139 4.75389 42.7047 4.31776 42.7956C3.88162 42.9319 3.40187 43 2.8785 43ZM5.29907 23.2398H11.6449C15.134 23.2398 17.838 22.4903 19.757 20.9912C21.676 19.4467 22.6355 17.13 22.6355 14.0411C22.6355 10.9521 21.6978 8.70354 19.8224 7.29534C17.9907 5.84172 15.352 5.11491 11.9065 5.11491C10.729 5.11491 9.5514 5.18304 8.37383 5.31932C7.23988 5.41017 6.21495 5.54645 5.29907 5.72815V23.2398Z" fill="#00619A"/>
<path d="M5.18518 5.66666H9.33333V43H5.18518V5.66666Z" fill="white"/>
</svg>
